<?xml version="1.0" encoding="UTF-8" standalone="no"?>
<!DOCTYPE svg PUBLIC "-//W3C//DTD SVG 1.1//EN" "http://www.w3.org/Graphics/SVG/1.1/DTD/svg11.dtd">
<svg xmlns="http://www.w3.org/2000/svg" xmlns:xlink="http://www.w3.org/1999/xlink" version="1.1" width="380.5547pt" height="99.756389pt" viewBox="0 0 380.5547 99.756389">
<g enable-background="new">
<g id="Layer-1" data-name="Layer 1">
<path transform="matrix(2.7777777,0,0,-2.7777777,2.7777777,96.97861)" d="M 52.1493 24.6535 C 49.9966 25.4945 47.1591 24.8717 46.6611 23.2914 C 45.5788 19.8558 53.1198 18.523 57.676 19.6778 C 62.0104 20.7765 63.3515 24.3859 58.1431 26.6479 C 56.4248 27.394 54.3509 28.0755 53.4217 29.3494 C 52.3383 30.8344 53.394 32.9834 55.8011 33.0789 C 57.2576 33.1367 58.0113 32.6132 58.019 31.6996 C 58.0283 30.6133 56.9854 30.1997 56.9024 29.6033 C 57.7692 29.3851 59.4505 29.9024 59.9865 30.155 C 62.6638 31.4155 60.1333 34.3723 54.4232 33.7088 C 48.9146 33.0687 47.1838 29.5478 51.5086 27.2996 C 53.2029 26.4189 54.7838 25.7564 56.3306 24.7677 C 58.0479 23.6704 58.6891 22.0034 56.6634 20.8551 C 53.64 19.1412 47.2813 20.9707 49.9745 23.1318 C 51.0355 23.9834 52.2009 23.3697 52.1493 24.6535 Z " fill="#f1c205" fill-rule="evenodd"/>
<path transform="matrix(2.7777777,0,0,-2.7777777,2.7777777,96.97861)" stroke-width=".216" stroke-linecap="butt" stroke-miterlimit="2.6131259" stroke-linejoin="miter" fill="none" stroke="#f1c205" d="M 52.1493 24.6535 C 49.9966 25.4945 47.1591 24.8717 46.6611 23.2914 C 45.5788 19.8558 53.1198 18.523 57.676 19.6778 C 62.0104 20.7765 63.3515 24.3859 58.1431 26.6479 C 56.4248 27.394 54.3509 28.0755 53.4217 29.3494 C 52.3383 30.8344 53.394 32.9834 55.8011 33.0789 C 57.2576 33.1367 58.0113 32.6132 58.019 31.6996 C 58.0283 30.6133 56.9854 30.1997 56.9024 29.6033 C 57.7692 29.3851 59.4505 29.9024 59.9865 30.155 C 62.6638 31.4155 60.1333 34.3723 54.4232 33.7088 C 48.9146 33.0687 47.1838 29.5478 51.5086 27.2996 C 53.2029 26.4189 54.7838 25.7564 56.3306 24.7677 C 58.0479 23.6704 58.6891 22.0034 56.6634 20.8551 C 53.64 19.1412 47.2813 20.9707 49.9745 23.1318 C 51.0355 23.9834 52.2009 23.3697 52.1493 24.6535 Z "/>
<path transform="matrix(2.7777777,0,0,-2.7777777,2.7777777,96.97861)" d="M 85.6964 31.0054 C 86.2427 30.1683 86.6129 30.2757 86.622 29.0064 C 86.6282 28.1392 86.6424 27.2772 86.6594 26.4101 C 86.6761 25.5555 86.7838 23.3646 86.5066 22.5788 C 86.3212 22.0538 86.0876 22.0184 85.8521 21.6111 L 90.4411 21.5943 C 90.1834 22.1822 89.7435 22.0241 89.61 23.0559 C 89.5212 23.741 89.2604 24.5078 90.1358 24.7666 C 90.8391 24.3159 91.4117 22.8915 92.1393 22.2335 C 93.0557 21.4044 95.1367 21.5646 97.05 21.6162 L 96.8593 21.7089 C 94.7616 22.6536 94.9416 23.0037 93.3052 24.8882 C 92.9724 25.2714 92.448 25.7326 92.2567 26.1108 L 95.1171 27.7353 C 95.4391 27.8932 95.9624 28.0412 96.2895 28.201 L 91.7884 28.2121 C 92.0225 27.6769 92.8599 27.5888 91.4783 26.6289 C 90.9703 26.276 90.0547 25.6286 89.5487 25.3653 L 89.7511 31.4674 Z " fill="#f1c205" fill-rule="evenodd"/>
<path transform="matrix(2.7777777,0,0,-2.7777777,2.7777777,96.97861)" stroke-width=".216" stroke-linecap="butt" stroke-miterlimit="2.6131259" stroke-linejoin="miter" fill="none" stroke="#f1c205" d="M 85.6964 31.0054 C 86.2427 30.1683 86.6129 30.2757 86.622 29.0064 C 86.6282 28.1392 86.6424 27.2772 86.6594 26.4101 C 86.6761 25.5555 86.7838 23.3646 86.5066 22.5788 C 86.3212 22.0538 86.0876 22.0184 85.8521 21.6111 L 90.4411 21.5943 C 90.1834 22.1822 89.7435 22.0241 89.61 23.0559 C 89.5212 23.741 89.2604 24.5078 90.1358 24.7666 C 90.8391 24.3159 91.4117 22.8915 92.1393 22.2335 C 93.0557 21.4044 95.1367 21.5646 97.05 21.6162 L 96.8593 21.7089 C 94.7616 22.6536 94.9416 23.0037 93.3052 24.8882 C 92.9724 25.2714 92.448 25.7326 92.2567 26.1108 L 95.1171 27.7353 C 95.4391 27.8932 95.9624 28.0412 96.2895 28.201 L 91.7884 28.2121 C 92.0225 27.6769 92.8599 27.5888 91.4783 26.6289 C 90.9703 26.276 90.0547 25.6286 89.5487 25.3653 L 89.7511 31.4674 Z "/>
<path transform="matrix(2.7777777,0,0,-2.7777777,2.7777777,96.97861)" d="M 79.2496 23.5162 C 79.1555 24.1866 79.5022 24.8043 80.46 24.9537 C 81.762 25.1572 82.0261 24.5305 82.0295 23.8178 C 82.0395 21.6496 79.4611 22.0071 79.2496 23.5162 Z M 78.2416 27.9377 C 78.5925 27.7594 78.4956 28.2824 78.4956 27.7767 C 78.0676 27.6863 78.0089 27.7554 77.8238 27.373 C 77.4077 26.5133 78.5319 26.2735 79.668 26.4135 C 79.7675 27.4079 79.4792 27.5117 80.1595 27.589 C 82.0644 28.1957 81.9729 27.1678 82.0242 25.2264 C 79.6005 26.2525 76.3257 25.5203 76.3509 23.5162 C 76.379 21.2981 80.6003 20.9784 82.0655 22.1859 C 82.1307 22.1491 83.4021 20.8672 85.2939 22.0195 C 85.2148 22.7682 84.8418 22.0127 84.8543 24.514 C 84.8588 25.4177 85.0229 26.3979 84.3883 27.1355 C 83.0758 28.6617 79.7034 28.6909 78.2416 27.9377 Z " fill="#f1c205" fill-rule="evenodd"/>
<path transform="matrix(2.7777777,0,0,-2.7777777,2.7777777,96.97861)" stroke-width=".216" stroke-linecap="butt" stroke-miterlimit="2.6131259" stroke-linejoin="miter" fill="none" stroke="#f1c205" d="M 79.2496 23.5162 C 79.1555 24.1866 79.5022 24.8043 80.46 24.9537 C 81.762 25.1572 82.0261 24.5305 82.0295 23.8178 C 82.0395 21.6496 79.4611 22.0071 79.2496 23.5162 Z M 78.2416 27.9377 C 78.5925 27.7594 78.4956 28.2824 78.4956 27.7767 C 78.0676 27.6863 78.0089 27.7554 77.8238 27.373 C 77.4077 26.5133 78.5319 26.2735 79.668 26.4135 C 79.7675 27.4079 79.4792 27.5117 80.1595 27.589 C 82.0644 28.1957 81.9729 27.1678 82.0242 25.2264 C 79.6005 26.2525 76.3257 25.5203 76.3509 23.5162 C 76.379 21.2981 80.6003 20.9784 82.0655 22.1859 C 82.1307 22.1491 83.4021 20.8672 85.2939 22.0195 C 85.2148 22.7682 84.8418 22.0127 84.8543 24.514 C 84.8588 25.4177 85.0229 26.3979 84.3883 27.1355 C 83.0758 28.6617 79.7034 28.6909 78.2416 27.9377 Z "/>
<path transform="matrix(2.7777777,0,0,-2.7777777,2.7777777,96.97861)" d="M 102.0489 22.5247 C 102.4673 22.6165 102.0798 22.7316 102.3174 22.5113 C 99.633 20.9415 98.248 24.2586 100.1254 24.9877 C 101.1793 25.397 101.6269 25.0169 102.3202 24.817 C 102.479 24.4369 102.4172 24.7173 102.1742 24.6101 C 102.4778 23.9811 102.335 23.0528 102.0489 22.5247 Z M 100.2555 26.3004 C 100.2189 27.256 100.1305 27.1891 100.7799 27.7948 L 101.5894 27.7917 C 102.384 27.0198 102.3894 26.369 102.3199 25.2329 C 99.7149 26.2063 96.5231 25.467 96.5923 23.4173 C 96.66 21.403 100.4658 20.9092 102.4991 22.208 L 102.7431 21.9781 C 102.8716 21.8721 102.8463 21.8648 103.0385 21.7723 C 103.8501 21.3817 104.9647 21.6519 105.6883 22.1193 C 105.3833 22.8042 105.1075 22.5224 105.1007 23.6134 C 105.0965 24.2456 105.1044 24.8803 105.1106 25.5124 C 105.1472 29.2995 99.5712 28.5199 98.4906 27.9346 C 96.9443 27.0967 97.7315 26.0271 100.2555 26.3004 Z " fill="#f1c205" fill-rule="evenodd"/>
<path transform="matrix(2.7777777,0,0,-2.7777777,2.7777777,96.97861)" stroke-width=".216" stroke-linecap="butt" stroke-miterlimit="2.6131259" stroke-linejoin="miter" fill="none" stroke="#f1c205" d="M 102.0489 22.5247 C 102.4673 22.6165 102.0798 22.7316 102.3174 22.5113 C 99.633 20.9415 98.248 24.2586 100.1254 24.9877 C 101.1793 25.397 101.6269 25.0169 102.3202 24.817 C 102.479 24.4369 102.4172 24.7173 102.1742 24.6101 C 102.4778 23.9811 102.335 23.0528 102.0489 22.5247 Z M 100.2555 26.3004 C 100.2189 27.256 100.1305 27.1891 100.7799 27.7948 L 101.5894 27.7917 C 102.384 27.0198 102.3894 26.369 102.3199 25.2329 C 99.7149 26.2063 96.5231 25.467 96.5923 23.4173 C 96.66 21.403 100.4658 20.9092 102.4991 22.208 L 102.7431 21.9781 C 102.8716 21.8721 102.8463 21.8648 103.0385 21.7723 C 103.8501 21.3817 104.9647 21.6519 105.6883 22.1193 C 105.3833 22.8042 105.1075 22.5224 105.1007 23.6134 C 105.0965 24.2456 105.1044 24.8803 105.1106 25.5124 C 105.1472 29.2995 99.5712 28.5199 98.4906 27.9346 C 96.9443 27.0967 97.7315 26.0271 100.2555 26.3004 Z "/>
<path transform="matrix(2.7777777,0,0,-2.7777777,2.7777777,96.97861)" d="M 106.9254 23.9717 C 106.7947 23.847 106.9404 24.0384 106.7284 23.7489 C 106.2884 23.1483 106.1796 22.4031 106.9858 21.9574 C 107.7012 21.5617 109.0865 21.4007 110.2768 21.4197 C 112.4963 21.4549 115.1867 22.4493 114.0559 24.0831 C 113.1318 25.4188 110.67 25.501 109.4202 26.3469 C 108.5703 26.922 109.3535 27.9145 110.5464 27.7764 C 111.5286 27.6625 111.7936 26.7259 112.4201 26.3256 C 115.7176 27.1363 112.7789 28.5968 109.9936 28.4037 C 106.3287 28.15 104.9236 25.5464 109.3207 24.0814 C 110.2518 23.7711 111.6641 23.5375 111.6541 22.8172 C 111.6414 21.8628 109.476 21.7006 107.7826 23.074 L 106.9982 23.9003 C 106.9815 23.9176 106.9515 23.9488 106.9254 23.9717 Z " fill="#f1c205" fill-rule="evenodd"/>
<path transform="matrix(2.7777777,0,0,-2.7777777,2.7777777,96.97861)" stroke-width=".216" stroke-linecap="butt" stroke-miterlimit="2.6131259" stroke-linejoin="miter" fill="none" stroke="#f1c205" d="M 106.9254 23.9717 C 106.7947 23.847 106.9404 24.0384 106.7284 23.7489 C 106.2884 23.1483 106.1796 22.4031 106.9858 21.9574 C 107.7012 21.5617 109.0865 21.4007 110.2768 21.4197 C 112.4963 21.4549 115.1867 22.4493 114.0559 24.0831 C 113.1318 25.4188 110.67 25.501 109.4202 26.3469 C 108.5703 26.922 109.3535 27.9145 110.5464 27.7764 C 111.5286 27.6625 111.7936 26.7259 112.4201 26.3256 C 115.7176 27.1363 112.7789 28.5968 109.9936 28.4037 C 106.3287 28.15 104.9236 25.5464 109.3207 24.0814 C 110.2518 23.7711 111.6641 23.5375 111.6541 22.8172 C 111.6414 21.8628 109.476 21.7006 107.7826 23.074 L 106.9982 23.9003 C 106.9815 23.9176 106.9515 23.9488 106.9254 23.9717 Z "/>
<path transform="matrix(2.7777777,0,0,-2.7777777,2.7777777,96.97861)" d="M 70.2575 21.6057 L 72.7435 21.6125 L 75.9776 27.4907 C 76.3254 27.9791 76.466 27.8597 76.7222 28.2073 L 73.98 28.2172 C 74.5903 27.3019 73.9335 26.4648 73.5605 25.558 C 73.3178 24.9681 72.8045 23.3966 72.4465 22.9382 C 72.2078 23.796 71.8033 24.762 71.5102 25.6003 C 71.1326 26.6794 70.6771 27.2812 71.3809 28.1991 L 66.5093 28.2229 C 67.1014 27.6222 67.2647 27.7866 67.7432 26.8379 Z " fill="#f1c205" fill-rule="evenodd"/>
<path transform="matrix(2.7777777,0,0,-2.7777777,2.7777777,96.97861)" stroke-width=".216" stroke-linecap="butt" stroke-miterlimit="2.6131259" stroke-linejoin="miter" fill="none" stroke="#f1c205" d="M 70.2575 21.6057 L 72.7435 21.6125 L 75.9776 27.4907 C 76.3254 27.9791 76.466 27.8597 76.7222 28.2073 L 73.98 28.2172 C 74.5903 27.3019 73.9335 26.4648 73.5605 25.558 C 73.3178 24.9681 72.8045 23.3966 72.4465 22.9382 C 72.2078 23.796 71.8033 24.762 71.5102 25.6003 C 71.1326 26.6794 70.6771 27.2812 71.3809 28.1991 L 66.5093 28.2229 C 67.1014 27.6222 67.2647 27.7866 67.7432 26.8379 Z "/>
<path transform="matrix(2.7777777,0,0,-2.7777777,2.7777777,96.97861)" d="M 62.4742 27.8107 C 63.3359 26.2208 63.3399 24.8828 63.1202 22.9969 C 63.0306 22.2267 62.7114 22.1516 62.4518 21.5901 L 66.8537 21.585 C 66.3437 22.716 66.0359 21.856 66.0951 24.7136 C 66.1195 25.8911 66.1147 27.0366 66.1901 28.2141 Z " fill="#f1c205" fill-rule="evenodd"/>
<path transform="matrix(2.7777777,0,0,-2.7777777,2.7777777,96.97861)" stroke-width=".216" stroke-linecap="butt" stroke-miterlimit="2.6131259" stroke-linejoin="miter" fill="none" stroke="#f1c205" d="M 62.4742 27.8107 C 63.3359 26.2208 63.3399 24.8828 63.1202 22.9969 C 63.0306 22.2267 62.7114 22.1516 62.4518 21.5901 L 66.8537 21.585 C 66.3437 22.716 66.0359 21.856 66.0951 24.7136 C 66.1195 25.8911 66.1147 27.0366 66.1901 28.2141 Z "/>
<path transform="matrix(2.7777777,0,0,-2.7777777,2.7777777,96.97861)" d="M 116.3231 27.8053 L 116.1417 27.752 C 116.106 27.7294 116.0586 27.7248 116.0359 27.6823 C 116.0141 27.6415 115.956 27.6321 115.9268 27.6205 C 115.899 27.6094 115.8423 27.5831 115.8114 27.5717 L 115.5662 27.5077 C 115.7652 27.1125 115.9923 26.7489 116.0371 26.2134 C 116.0807 25.6884 116.0773 25.1405 116.0918 24.6138 C 116.106 24.0919 116.1048 23.5383 116.0357 23.019 C 115.9418 22.318 115.7593 22.2395 115.4993 21.7208 C 116.4484 21.7559 118.2195 21.835 119.0769 21.6811 C 118.9879 22.2531 119.0044 21.6763 118.7439 22.2568 C 118.4094 23.0017 118.5041 27.2381 118.5939 27.8898 C 118.1466 27.8668 117.9215 27.8444 117.481 27.7826 C 117.4164 27.7736 117.0176 27.7118 116.9649 27.7098 C 116.7625 27.7024 116.9277 27.6905 116.7015 27.7115 C 116.2848 27.7503 116.5989 27.6514 116.3231 27.8053 Z " fill="#f1c205" fill-rule="evenodd"/>
<path transform="matrix(2.7777777,0,0,-2.7777777,2.7777777,96.97861)" stroke-width=".216" stroke-linecap="butt" stroke-miterlimit="2.6131259" stroke-linejoin="miter" fill="none" stroke="#f1c205" d="M 116.3231 27.8053 L 116.1417 27.752 C 116.106 27.7294 116.0586 27.7248 116.0359 27.6823 C 116.0141 27.6415 115.956 27.6321 115.9268 27.6205 C 115.899 27.6094 115.8423 27.5831 115.8114 27.5717 L 115.5662 27.5077 C 115.7652 27.1125 115.9923 26.7489 116.0371 26.2134 C 116.0807 25.6884 116.0773 25.1405 116.0918 24.6138 C 116.106 24.0919 116.1048 23.5383 116.0357 23.019 C 115.9418 22.318 115.7593 22.2395 115.4993 21.7208 C 116.4484 21.7559 118.2195 21.835 119.0769 21.6811 C 118.9879 22.2531 119.0044 21.6763 118.7439 22.2568 C 118.4094 23.0017 118.5041 27.2381 118.5939 27.8898 C 118.1466 27.8668 117.9215 27.8444 117.481 27.7826 C 117.4164 27.7736 117.0176 27.7118 116.9649 27.7098 C 116.7625 27.7024 116.9277 27.6905 116.7015 27.7115 C 116.2848 27.7503 116.5989 27.6514 116.3231 27.8053 Z "/>
<path transform="matrix(2.7777777,0,0,-2.7777777,2.7777777,96.97861)" d="M 63.7954 31.2732 C 61.7301 30.78 62.5691 28.5908 64.9675 29.1864 C 67.0309 29.6986 66.2134 31.8506 63.7954 31.2732 Z " fill="#f1c205" fill-rule="evenodd"/>
<path transform="matrix(2.7777777,0,0,-2.7777777,2.7777777,96.97861)" stroke-width=".216" stroke-linecap="butt" stroke-miterlimit="2.6131259" stroke-linejoin="miter" fill="none" stroke="#f1c205" d="M 63.7954 31.2732 C 61.7301 30.78 62.5691 28.5908 64.9675 29.1864 C 67.0309 29.6986 66.2134 31.8506 63.7954 31.2732 Z "/>
<path transform="matrix(2.7777777,0,0,-2.7777777,2.7777777,96.97861)" d="M 115.7304 28.7456 C 116.2298 28.5111 116.6845 28.3714 117.538 28.5429 C 118.247 28.6852 118.3122 28.8697 118.6722 29.2218 C 118.0463 29.2218 118.8485 29.6504 117.985 30.1535 C 117.436 30.4733 116.7279 30.7678 115.9274 30.1952 C 114.9902 29.5248 115.9285 29.1838 115.7981 28.817 C 115.7924 28.8006 115.7581 28.7668 115.7304 28.7456 Z " fill="#f1c205" fill-rule="evenodd"/>
<path transform="matrix(2.7777777,0,0,-2.7777777,2.7777777,96.97861)" stroke-width=".216" stroke-linecap="butt" stroke-miterlimit="2.6131259" stroke-linejoin="miter" fill="none" stroke="#f1c205" d="M 115.7304 28.7456 C 116.2298 28.5111 116.6845 28.3714 117.538 28.5429 C 118.247 28.6852 118.3122 28.8697 118.6722 29.2218 C 118.0463 29.2218 118.8485 29.6504 117.985 30.1535 C 117.436 30.4733 116.7279 30.7678 115.9274 30.1952 C 114.9902 29.5248 115.9285 29.1838 115.7981 28.817 C 115.7924 28.8006 115.7581 28.7668 115.7304 28.7456 Z "/>
<path transform="matrix(2.7777777,0,0,-2.7777777,2.7777777,96.97861)" d="M 116.3231 27.8053 C 116.5989 27.6514 116.2848 27.7503 116.7015 27.7115 C 116.9277 27.6905 116.7625 27.7024 116.9649 27.7098 C 117.0176 27.7118 117.4164 27.7736 117.481 27.7826 C 117.9215 27.8444 118.1466 27.8668 118.5939 27.8898 C 118.5041 27.2381 118.4094 23.0017 118.7439 22.2568 C 119.0044 21.6763 118.9879 22.2531 119.0769 21.6811 C 118.2195 21.835 116.4484 21.7559 115.4993 21.7208 C 115.7593 22.2395 115.9418 22.318 116.0357 23.019 C 116.1048 23.5383 116.106 24.0919 116.0918 24.6138 C 116.0773 25.1405 116.0807 25.6884 116.0371 26.2134 C 115.9923 26.7489 115.7652 27.1125 115.5662 27.5077 L 115.8114 27.5717 C 115.8423 27.5831 115.899 27.6094 115.9268 27.6205 C 115.956 27.6321 116.0141 27.6415 116.0359 27.6823 C 116.0586 27.7248 116.106 27.7294 116.1417 27.752 L 115.1977 27.684 C 115.5212 26.6632 115.8477 27.7481 115.8616 24.7136 C 115.8724 22.3906 115.9398 23.1389 115.1306 21.6128 L 119.5214 21.5952 C 118.876 22.898 118.7337 21.9019 118.7512 24.6138 C 118.758 25.6598 118.9043 27.0797 118.7697 28.0729 Z " fill="#f1c205" fill-rule="evenodd"/>
<path transform="matrix(2.7777777,0,0,-2.7777777,2.7777777,96.97861)" d="M 102.0489 22.5247 C 101.4316 22.3946 101.0602 22.0141 100.254 22.4481 C 98.5005 23.3918 100.0576 26.032 102.1742 24.6101 C 102.4172 24.7173 102.479 24.4369 102.3202 24.817 C 101.6269 25.0169 101.1793 25.397 100.1254 24.9877 C 98.248 24.2586 99.633 20.9415 102.3174 22.5113 C 102.0798 22.7316 102.4673 22.6165 102.0489 22.5247 Z " fill="#f1c205" fill-rule="evenodd"/>
<path transform="matrix(2.7777777,0,0,-2.7777777,2.7777777,96.97861)" stroke-width=".216" stroke-linecap="butt" stroke-miterlimit="2.6131259" stroke-linejoin="miter" fill="none" stroke="#f1c205" d="M 102.0489 22.5247 C 101.4316 22.3946 101.0602 22.0141 100.254 22.4481 C 98.5005 23.3918 100.0576 26.032 102.1742 24.6101 C 102.4172 24.7173 102.479 24.4369 102.3202 24.817 C 101.6269 25.0169 101.1793 25.397 100.1254 24.9877 C 98.248 24.2586 99.633 20.9415 102.3174 22.5113 C 102.0798 22.7316 102.4673 22.6165 102.0489 22.5247 Z "/>
<path transform="matrix(2.7777777,0,0,-2.7777777,2.7777777,96.97861)" d="M 115.7304 28.7456 C 115.7581 28.7668 115.7924 28.8006 115.7981 28.817 C 115.9285 29.1838 114.9902 29.5248 115.9274 30.1952 C 116.7279 30.7678 117.436 30.4733 117.985 30.1535 C 118.8485 29.6504 118.0463 29.2218 118.6722 29.2218 C 118.8507 31.7381 113.5851 30.4954 115.7304 28.7456 " fill="#f1c205" fill-rule="evenodd"/>
<path transform="matrix(2.7777777,0,0,-2.7777777,2.7777777,96.97861)" d="M 80.1595 27.589 C 79.4792 27.5117 79.7675 27.4079 79.668 26.4135 C 78.5319 26.2735 77.4077 26.5133 77.8238 27.373 C 78.0089 27.7554 78.0676 27.6863 78.4956 27.7767 C 78.4956 28.2824 78.5925 27.7594 78.2416 27.9377 C 77.7549 27.707 77.1015 27.1604 77.6429 26.6221 C 78.0956 26.1717 79.1022 26.246 79.9852 26.2913 C 79.9078 26.9909 79.8514 26.9748 80.1595 27.589 Z " fill="#f1c205" fill-rule="evenodd"/>
<path transform="matrix(2.7777777,0,0,-2.7777777,2.7777777,96.97861)" stroke-width=".216" stroke-linecap="butt" stroke-miterlimit="2.6131259" stroke-linejoin="miter" fill="none" stroke="#f1c205" d="M 80.1595 27.589 C 79.4792 27.5117 79.7675 27.4079 79.668 26.4135 C 78.5319 26.2735 77.4077 26.5133 77.8238 27.373 C 78.0089 27.7554 78.0676 27.6863 78.4956 27.7767 C 78.4956 28.2824 78.5925 27.7594 78.2416 27.9377 C 77.7549 27.707 77.1015 27.1604 77.6429 26.6221 C 78.0956 26.1717 79.1022 26.246 79.9852 26.2913 C 79.9078 26.9909 79.8514 26.9748 80.1595 27.589 Z "/>
<path transform="matrix(2.7777777,0,0,-2.7777777,2.7777777,96.97861)" d="M 69.5546 9.9709 L 68.6529 10.0191 C 67.7132 9.3662 67.5193 8.803 65.9869 8.3891 C 64.4868 7.9841 62.9674 8.4728 62.1952 9.0207 C 58.6202 11.5574 62.2636 17.6085 65.1027 18.7106 C 66.5819 19.2847 67.8098 18.6639 67.8436 17.6221 C 67.8889 16.234 66.5391 15.7989 66.4654 15.1191 C 71.6196 15.0746 71.8104 19.4284 66.4486 19.8281 C 62.2701 20.1393 59.4411 17.4631 58.1462 15.457 C 56.823 13.4067 56.4934 9.3951 59.8286 7.8917 C 63.5247 6.2257 68.7572 7.4137 69.5546 9.9709 " fill="#f1c205" fill-rule="evenodd"/>
<path transform="matrix(2.7777777,0,0,-2.7777777,2.7777777,96.97861)" d="M 98.3696 18.4275 C 98.9994 17.7358 99.3161 17.7491 99.3665 16.5206 L 99.4277 11.1858 C 99.4221 9.3523 99.021 9.758 98.6797 8.9853 L 103.2866 8.9257 C 103.0127 9.4286 102.4671 9.8311 102.4248 10.4788 C 102.378 11.1971 102.2068 11.8015 102.8676 12.1411 C 103.6621 11.7247 104.2174 10.2481 104.9491 9.6165 C 105.9738 8.7324 108.1502 8.9271 110.2598 8.9711 L 110.0183 9.0488 C 109.9851 9.059 109.8283 9.1052 109.7844 9.1182 C 109.389 9.237 109.6186 9.1457 109.2671 9.286 C 108.3044 9.6701 107.8163 10.2847 107.2168 10.9837 L 105.0778 13.5 C 106.5407 14.4726 107.3477 14.8487 108.9011 15.4916 L 104.5854 15.5273 C 104.8972 15.0409 105.7014 14.9202 104.2126 13.9348 C 103.54 13.4895 103.1185 13.2242 102.4415 12.7202 L 102.5538 18.8623 Z " fill="#f1c205" fill-rule="evenodd"/>
<path transform="matrix(2.7777777,0,0,-2.7777777,2.7777777,96.97861)" d="M 83.5152 12.2494 C 84.0416 12.3489 84.5799 12.2508 84.9172 12.0504 C 85.4957 11.7065 85.6426 9.9116 84.2681 9.6409 C 82.3703 9.267 81.6423 11.8953 83.5152 12.2494 Z M 83.2521 14.7178 C 85.4629 16.2609 85.2491 13.2026 85.2831 12.4812 C 84.3911 12.8047 83.2969 13.3401 81.4949 12.8449 C 81.2758 12.7845 80.8319 12.6213 80.6907 12.5507 C 78.2666 11.3391 79.4775 8.2877 83.8219 8.9203 L 85.4858 9.5029 C 85.8268 8.7968 86.7946 8.6769 87.8678 8.9048 C 89.1884 9.1854 88.2323 9.4915 88.0957 9.9816 C 87.9948 10.3425 88.0404 10.906 88.043 11.287 C 88.0537 13.0164 88.6836 16.2159 83.2706 15.713 C 83.0642 15.552 83.1861 15.5999 82.8417 15.4976 C 82.4831 15.391 81.5978 15.4287 80.9918 14.4054 C 81.5927 13.7208 81.7517 13.7466 82.8884 13.7262 C 83.1813 14.3977 82.8493 15.1883 83.2521 14.7178 " fill="#f1c205" fill-rule="evenodd"/>
<path transform="matrix(2.7777777,0,0,-2.7777777,2.7777777,96.97861)" d="M 111.9793 12.8577 C 111.8752 14.1715 113.3603 15.8672 114.5146 14.9009 C 114.8165 14.648 115.6833 12.5626 111.9793 12.8577 Z M 111.2357 9.2543 C 111.9926 9.222 113.3739 8.8019 114.9888 9.0683 C 116.3733 9.2965 116.4997 9.5451 117.0167 9.8802 C 117.3844 10.1183 117.3776 10.061 117.5542 10.4272 L 117.3331 10.3153 C 116.5414 9.8586 115.9549 9.7245 114.3794 9.8824 C 113.5227 9.9683 113.6358 10.1412 113.5879 10.2801 C 112.3815 10.8567 112.0952 11.1966 111.9112 12.3769 C 112.8195 12.3177 117.0454 11.6155 117.5638 13.4994 C 118.3385 16.3137 110.0806 16.6107 108.9686 12.9657 C 108.4762 11.3525 109.5282 9.6335 111.2357 9.2543 " fill="#f1c205" fill-rule="evenodd"/>
<path transform="matrix(2.7777777,0,0,-2.7777777,2.7777777,96.97861)" d="M 97.9999 11.2723 C 97.2873 10.7878 97.0798 10.0191 95.55 10.0137 C 94.3036 10.0091 93.2394 10.635 92.7975 11.1104 C 91.6852 12.3072 92.2133 15.3252 94.5513 15.0463 C 95.5789 14.4893 94.8974 13.8883 94.9484 13.1148 C 98.6576 12.8492 98.6825 15.5288 94.9425 15.6319 C 87.9066 15.8264 87.6963 9.9723 92.2887 8.9756 C 95.0729 8.3716 98.3769 9.5803 97.9999 11.2723 " fill="#f1c205" fill-rule="evenodd"/>
<path transform="matrix(2.7777777,0,0,-2.7777777,2.7777777,96.97861)" d="M 129.2213 11.7808 C 129.5631 11.3854 130.6191 11.2567 131.4241 10.9383 C 132.2118 10.6265 132.766 9.9196 131.6874 9.5513 C 129.6519 8.8569 127.961 10.6625 127.4219 11.3712 C 126.8782 10.8587 126.6452 9.8283 127.4238 9.3611 C 129.4257 8.1598 136.2563 8.8231 134.7968 11.3066 C 134.4694 11.8641 133.4044 12.3214 132.7343 12.6009 C 132.0338 12.8931 130.5527 13.3413 130.0904 13.61 C 129.2253 14.1129 129.6587 15.1537 131.0074 15.0948 C 132.0001 15.0514 132.4692 14.1868 132.8913 13.6006 C 133.5027 13.6964 134.0694 13.9504 134.4492 14.1752 C 134.4708 14.7526 134.441 14.7991 133.9662 15.1084 C 133.8012 15.0355 134.0674 15.0344 133.7556 15.0814 C 133.7516 15.0823 130.7183 16.3179 128.2992 14.9542 C 127.2611 14.3691 127.2042 13.1193 128.3071 12.454 C 128.3292 12.4407 128.5492 12.3211 128.5569 12.3163 Z " fill="#f1c205" fill-rule="evenodd"/>
<path transform="matrix(2.7777777,0,0,-2.7777777,2.7777777,96.97861)" d="M 121.8526 14.1015 L 121.8807 15.4491 L 118.4034 15.1169 C 119.2533 13.6009 119.0299 13.913 119.0211 11.9911 C 119.0186 11.4523 119.0659 10.8153 118.9933 10.2886 C 118.889 9.5304 118.5542 9.4825 118.2711 8.9728 L 122.792 8.9524 C 122.5117 9.4887 122.1131 9.4652 121.9946 10.277 C 121.8739 11.1027 121.6655 13.0229 122.4184 13.6324 C 122.864 13.9932 123.2688 14.36 124.2505 14.256 C 124.8361 13.8665 124.4925 13.7409 124.797 13.3112 C 126.7875 13.1715 127.9389 14.8992 125.8775 15.6067 C 123.44 16.4432 122.4238 14.7061 121.8526 14.1015 " fill="#f1c205" fill-rule="evenodd"/>
<path transform="matrix(2.7777777,0,0,-2.7777777,2.7777777,96.97861)" d="M 77.1659 14.1718 C 77.847 14.1593 77.2517 14.478 77.6874 13.4742 C 78.4071 13.4909 78.3028 13.4141 78.8709 13.8339 C 79.5044 14.3025 79.3414 14.4122 79.3324 15.029 C 79.2643 15.7952 77.1851 15.9537 76.3909 15.6379 C 75.2749 15.1946 75.2122 14.4828 74.4474 13.8906 L 74.4803 15.5231 L 71.0331 15.1676 C 71.1283 14.3592 71.6247 15.3797 71.5978 12.0917 C 71.5717 8.8818 71.3718 10.3192 70.8778 9.0037 L 75.3639 8.9456 C 75.1394 9.5202 74.6677 9.4912 74.5461 10.3768 C 74.4633 10.98 74.4959 11.6827 74.4945 12.2953 C 74.4922 13.2432 75.5178 14.5701 77.1659 14.1718 " fill="#f1c205" fill-rule="evenodd"/>
<path transform="matrix(2.7777777,0,0,-2.7777777,2.7777777,96.97861)" d="M 113.5879 10.2801 C 113.6358 10.1412 113.5227 9.9683 114.3794 9.8824 C 115.9549 9.7245 116.5414 9.8586 117.3331 10.3153 L 117.5542 10.4272 C 117.3776 10.061 117.3844 10.1183 117.0167 9.8802 C 116.4997 9.5451 116.3733 9.2965 114.9888 9.0683 C 113.3739 8.8019 111.9926 9.222 111.2357 9.2543 C 113.5803 8.1819 118.1092 9.1437 117.9026 10.9511 C 117.4388 10.8354 117.2665 10.2784 116.276 10.0607 C 115.437 9.8762 114.245 10.0006 113.5879 10.2801 " fill="#f4e43a" fill-rule="evenodd"/>
<path transform="matrix(2.7777777,0,0,-2.7777777,2.7777777,96.97861)" d="M 129.2213 11.7808 L 128.5569 12.3163 C 128.5492 12.3211 128.3292 12.4407 128.3071 12.454 C 127.2042 13.1193 127.2611 14.3691 128.2992 14.9542 C 130.7183 16.3179 133.7516 15.0823 133.7556 15.0814 C 134.0674 15.0344 133.8012 15.0355 133.9662 15.1084 C 132.5735 16.0098 129.4489 15.8786 128.1231 15.0727 C 126.3614 14.0014 127.5052 12.2505 129.2213 11.7808 Z " fill="#f1c205" fill-rule="evenodd"/>
<path transform="matrix(2.7777777,0,0,-2.7777777,2.7777777,96.97861)" stroke-width=".216" stroke-linecap="butt" stroke-miterlimit="2.6131259" stroke-linejoin="miter" fill="none" stroke="#f1c205" d="M 129.2213 11.7808 L 128.5569 12.3163 C 128.5492 12.3211 128.3292 12.4407 128.3071 12.454 C 127.2042 13.1193 127.2611 14.3691 128.2992 14.9542 C 130.7183 16.3179 133.7516 15.0823 133.7556 15.0814 C 134.0674 15.0344 133.8012 15.0355 133.9662 15.1084 C 132.5735 16.0098 129.4489 15.8786 128.1231 15.0727 C 126.3614 14.0014 127.5052 12.2505 129.2213 11.7808 Z "/>
<path transform="matrix(2.7777777,0,0,-2.7777777,2.7777777,96.97861)" d="M 83.2521 14.7178 C 82.8493 15.1883 83.1813 14.3977 82.8884 13.7262 C 81.7517 13.7466 81.5927 13.7208 80.9918 14.4054 C 81.5978 15.4287 82.4831 15.391 82.8417 15.4976 C 83.1861 15.5999 83.0642 15.552 83.2706 15.713 C 80.1955 15.3938 79.6734 13.343 83.2073 13.6375 Z " fill="#f1c205" fill-rule="evenodd"/>
<path transform="matrix(2.7777777,0,0,-2.7777777,2.7777777,96.97861)" stroke-width=".216" stroke-linecap="butt" stroke-miterlimit="2.6131259" stroke-linejoin="miter" fill="none" stroke="#f1c205" d="M 83.2521 14.7178 C 82.8493 15.1883 83.1813 14.3977 82.8884 13.7262 C 81.7517 13.7466 81.5927 13.7208 80.9918 14.4054 C 81.5978 15.4287 82.4831 15.391 82.8417 15.4976 C 83.1861 15.5999 83.0642 15.552 83.2706 15.713 C 80.1955 15.3938 79.6734 13.343 83.2073 13.6375 Z "/>
<path transform="matrix(2.7777777,0,0,-2.7777777,2.7777777,96.97861)" d="M 77.1659 14.1718 L 77.4179 13.3313 C 78.3607 13.2304 78.7632 13.4708 79.2031 13.8107 C 79.4857 14.0292 79.7264 14.366 79.6453 14.6803 C 79.5132 15.192 79.4928 14.9165 79.3324 15.029 C 79.3414 14.4122 79.5044 14.3025 78.8709 13.8339 C 78.3028 13.4141 78.4071 13.4909 77.6874 13.4742 C 77.2517 14.478 77.847 14.1593 77.1659 14.1718 Z " fill="#f1c205" fill-rule="evenodd"/>
<path transform="matrix(2.7777777,0,0,-2.7777777,2.7777777,96.97861)" stroke-width=".216" stroke-linecap="butt" stroke-miterlimit="2.6131259" stroke-linejoin="miter" fill="none" stroke="#f1c205" d="M 77.1659 14.1718 L 77.4179 13.3313 C 78.3607 13.2304 78.7632 13.4708 79.2031 13.8107 C 79.4857 14.0292 79.7264 14.366 79.6453 14.6803 C 79.5132 15.192 79.4928 14.9165 79.3324 15.029 C 79.3414 14.4122 79.5044 14.3025 78.8709 13.8339 C 78.3028 13.4141 78.4071 13.4909 77.6874 13.4742 C 77.2517 14.478 77.847 14.1593 77.1659 14.1718 Z "/>
<path transform="matrix(2.7777777,0,0,-2.7777777,2.7777777,96.97861)" d="M 39.0875 2.5951 C 38.6833 4.0229 41.3178 4.341 41.5698 2.9735 C 41.8252 1.586 39.4648 1.2631 39.0875 2.5951 Z M 41.5857 3.8064 C 40.9796 4.1012 40.4705 4.4646 39.3707 4.1281 C 38.6546 3.9093 38.2266 3.4577 38.2292 2.7913 C 38.2346 1.398 40.2656 .8521 41.5273 1.7833 C 41.9182 .0414 39.7264 .3268 39.2151 .7656 C 38.7408 1.1727 39.3415 1.1509 38.2405 1.1211 C 38.3621 .4578 38.7893 .239 39.7746 .1491 C 43.0551 -.1502 42.3122 1.5321 42.3558 3.3837 C 42.3615 3.6266 42.4026 3.9781 42.1937 4.1896 C 41.3631 4.1142 41.9301 4.3214 41.5857 3.8064 Z " fill="#a11814" fill-rule="evenodd"/>
<path transform="matrix(2.7777777,0,0,-2.7777777,2.7777777,96.97861)" stroke-width=".216" stroke-linecap="butt" stroke-miterlimit="2.6131259" stroke-linejoin="miter" fill="none" stroke="#a11814" d="M 39.0875 2.5951 C 38.6833 4.0229 41.3178 4.341 41.5698 2.9735 C 41.8252 1.586 39.4648 1.2631 39.0875 2.5951 Z M 41.5857 3.8064 C 40.9796 4.1012 40.4705 4.4646 39.3707 4.1281 C 38.6546 3.9093 38.2266 3.4577 38.2292 2.7913 C 38.2346 1.398 40.2656 .8521 41.5273 1.7833 C 41.9182 .0414 39.7264 .3268 39.2151 .7656 C 38.7408 1.1727 39.3415 1.1509 38.2405 1.1211 C 38.3621 .4578 38.7893 .239 39.7746 .1491 C 43.0551 -.1502 42.3122 1.5321 42.3558 3.3837 C 42.3615 3.6266 42.4026 3.9781 42.1937 4.1896 C 41.3631 4.1142 41.9301 4.3214 41.5857 3.8064 Z "/>
<path transform="matrix(2.7777777,0,0,-2.7777777,2.7777777,96.97861)" d="M 21.5334 1.2478 C 21.6459 .9434 21.5751 .8617 21.4143 .6004 C 20.5206 .4263 19.6053 .3061 18.9666 .8048 C 19.0457 1.2359 19.2606 1.3167 19.9911 1.3419 C 20.5767 1.362 21.0645 1.3448 21.5334 1.2478 Z M 19.6055 3.8344 C 21.5629 4.0555 21.4826 2.9679 20.7641 2.6904 C 19.6767 2.2703 18.5624 2.9914 19.6055 3.8344 Z M 19.2297 2.2187 C 20.19 2.4384 21.1158 2.0716 21.7205 2.7621 C 22.074 3.166 21.8285 3.2287 21.8605 3.6026 C 21.9127 4.2126 22.3206 3.6374 22.1879 4.2043 C 21.4523 4.2486 21.8409 4.0011 20.7675 4.1664 C 20.1373 4.2633 19.7218 4.2831 19.1869 4.1066 C 17.6567 3.6009 18.7591 2.6668 19.0276 2.3987 C 18.6347 2.139 18.6418 2.1436 18.3609 1.8278 C 18.4657 1.6004 18.517 1.5874 18.7512 1.4244 C 17.2205 .7143 19.1588 -.1483 21.1535 .1797 C 21.9002 .3025 22.557 .6636 22.2633 1.2858 C 21.7709 2.3284 18.5791 1.0536 19.2297 2.2187 Z " fill="#a11814" fill-rule="evenodd"/>
<path transform="matrix(2.7777777,0,0,-2.7777777,2.7777777,96.97861)" stroke-width=".216" stroke-linecap="butt" stroke-miterlimit="2.6131259" stroke-linejoin="miter" fill="none" stroke="#a11814" d="M 21.5334 1.2478 C 21.6459 .9434 21.5751 .8617 21.4143 .6004 C 20.5206 .4263 19.6053 .3061 18.9666 .8048 C 19.0457 1.2359 19.2606 1.3167 19.9911 1.3419 C 20.5767 1.362 21.0645 1.3448 21.5334 1.2478 Z M 19.6055 3.8344 C 21.5629 4.0555 21.4826 2.9679 20.7641 2.6904 C 19.6767 2.2703 18.5624 2.9914 19.6055 3.8344 Z M 19.2297 2.2187 C 20.19 2.4384 21.1158 2.0716 21.7205 2.7621 C 22.074 3.166 21.8285 3.2287 21.8605 3.6026 C 21.9127 4.2126 22.3206 3.6374 22.1879 4.2043 C 21.4523 4.2486 21.8409 4.0011 20.7675 4.1664 C 20.1373 4.2633 19.7218 4.2831 19.1869 4.1066 C 17.6567 3.6009 18.7591 2.6668 19.0276 2.3987 C 18.6347 2.139 18.6418 2.1436 18.3609 1.8278 C 18.4657 1.6004 18.517 1.5874 18.7512 1.4244 C 17.2205 .7143 19.1588 -.1483 21.1535 .1797 C 21.9002 .3025 22.557 .6636 22.2633 1.2858 C 21.7709 2.3284 18.5791 1.0536 19.2297 2.2187 Z "/>
<path transform="matrix(2.7777777,0,0,-2.7777777,2.7777777,96.97861)" d="M 90.7455 2.3003 C 90.0799 1.0777 87.6969 1.796 88.4636 3.2423 C 89.0697 4.3852 91.5007 3.6876 90.7455 2.3003 Z M 88.4265 1.7359 C 89.5252 .6625 91.722 1.5661 91.7155 2.7856 C 91.7087 4.1017 89.6669 4.7775 88.4069 3.702 L 88.3536 5.5295 L 87.5602 5.5032 C 87.4723 4.7248 87.2847 1.9018 87.6402 1.3859 C 88.8109 1.4916 87.5526 1.4173 88.4265 1.7359 Z " fill="#a11814" fill-rule="evenodd"/>
<path transform="matrix(2.7777777,0,0,-2.7777777,2.7777777,96.97861)" stroke-width=".216" stroke-linecap="butt" stroke-miterlimit="2.6131259" stroke-linejoin="miter" fill="none" stroke="#a11814" d="M 90.7455 2.3003 C 90.0799 1.0777 87.6969 1.796 88.4636 3.2423 C 89.0697 4.3852 91.5007 3.6876 90.7455 2.3003 Z M 88.4265 1.7359 C 89.5252 .6625 91.722 1.5661 91.7155 2.7856 C 91.7087 4.1017 89.6669 4.7775 88.4069 3.702 L 88.3536 5.5295 L 87.5602 5.5032 C 87.4723 4.7248 87.2847 1.9018 87.6402 1.3859 C 88.8109 1.4916 87.5526 1.4173 88.4265 1.7359 Z "/>
<path transform="matrix(2.7777777,0,0,-2.7777777,2.7777777,96.97861)" d="M 74.4282 2.4758 C 73.3215 2.5529 73.8598 1.5046 71.9067 1.7597 C 69.6963 2.0486 69.8513 4.422 71.5808 4.7208 C 73.4386 5.0414 73.338 4.4169 73.9644 3.9832 L 74.562 4.1672 C 74.2955 5.6687 69.1977 5.7492 69.3853 3.0847 C 69.5784 .3455 75.3429 1.3127 74.4282 2.4758 Z " fill="#a11814" fill-rule="evenodd"/>
<path transform="matrix(2.7777777,0,0,-2.7777777,2.7777777,96.97861)" stroke-width=".216" stroke-linecap="butt" stroke-miterlimit="2.6131259" stroke-linejoin="miter" fill="none" stroke="#a11814" d="M 74.4282 2.4758 C 73.3215 2.5529 73.8598 1.5046 71.9067 1.7597 C 69.6963 2.0486 69.8513 4.422 71.5808 4.7208 C 73.4386 5.0414 73.338 4.4169 73.9644 3.9832 L 74.562 4.1672 C 74.2955 5.6687 69.1977 5.7492 69.3853 3.0847 C 69.5784 .3455 75.3429 1.3127 74.4282 2.4758 Z "/>
<path transform="matrix(2.7777777,0,0,-2.7777777,2.7777777,96.97861)" d="M 46.385 4.7605 C 46.9672 4.754 47.5475 4.7565 48.1292 4.7506 C 48.2238 4.7494 48.8356 4.748 48.8849 4.7546 C 49.3328 4.8129 49.1808 4.7081 49.3316 4.953 C 49.1525 5.2262 49.4087 5.1367 48.5969 5.1605 L 45.5369 5.1511 L 45.5332 1.3876 C 46.2455 1.3958 46.9536 1.3955 47.6657 1.3898 C 49.7826 1.3728 49.3106 1.2969 49.4938 1.6126 C 49.2732 1.8816 49.7259 1.7484 48.8948 1.7935 L 46.41 1.7776 L 46.391 3.1799 C 46.9193 3.1822 47.4477 3.1861 47.9758 3.1802 C 49.0952 3.168 49.0558 3.1513 49.2491 3.3812 C 48.9365 3.6397 49.3637 3.4807 48.729 3.545 L 46.4145 3.5362 Z " fill="#a11814" fill-rule="evenodd"/>
<path transform="matrix(2.7777777,0,0,-2.7777777,2.7777777,96.97861)" stroke-width=".216" stroke-linecap="butt" stroke-miterlimit="2.6131259" stroke-linejoin="miter" fill="none" stroke="#a11814" d="M 46.385 4.7605 C 46.9672 4.754 47.5475 4.7565 48.1292 4.7506 C 48.2238 4.7494 48.8356 4.748 48.8849 4.7546 C 49.3328 4.8129 49.1808 4.7081 49.3316 4.953 C 49.1525 5.2262 49.4087 5.1367 48.5969 5.1605 L 45.5369 5.1511 L 45.5332 1.3876 C 46.2455 1.3958 46.9536 1.3955 47.6657 1.3898 C 49.7826 1.3728 49.3106 1.2969 49.4938 1.6126 C 49.2732 1.8816 49.7259 1.7484 48.8948 1.7935 L 46.41 1.7776 L 46.391 3.1799 C 46.9193 3.1822 47.4477 3.1861 47.9758 3.1802 C 49.0952 3.168 49.0558 3.1513 49.2491 3.3812 C 48.9365 3.6397 49.3637 3.4807 48.729 3.545 L 46.4145 3.5362 Z "/>
<path transform="matrix(2.7777777,0,0,-2.7777777,2.7777777,96.97861)" d="M 24.0381 1.5466 C 24.2306 2.0636 23.9579 1.0678 24.0919 1.7138 C 24.2189 2.325 23.6534 3.6845 25.1884 3.7698 C 26.4359 3.839 26.1763 2.8502 26.1584 2.0999 C 26.1434 1.4797 26.1711 1.5588 26.3863 1.3876 L 26.8421 1.398 L 26.9875 1.9996 C 26.9994 3.1122 27.2991 4.3438 25.3256 4.1958 C 24.6591 4.1457 24.4125 3.9475 24.1251 3.6978 C 24.0769 4.2279 24.3289 5.1046 23.9545 5.5222 L 23.3263 5.5355 C 23.1965 4.7974 23.3002 3.2134 23.2736 2.2992 C 23.2722 2.2507 23.3079 1.2705 23.43 1.4675 C 23.4386 1.4817 23.4697 1.4151 23.4984 1.391 L 23.9542 1.3966 Z " fill="#a11814" fill-rule="evenodd"/>
<path transform="matrix(2.7777777,0,0,-2.7777777,2.7777777,96.97861)" stroke-width=".216" stroke-linecap="butt" stroke-miterlimit="2.6131259" stroke-linejoin="miter" fill="none" stroke="#a11814" d="M 24.0381 1.5466 C 24.2306 2.0636 23.9579 1.0678 24.0919 1.7138 C 24.2189 2.325 23.6534 3.6845 25.1884 3.7698 C 26.4359 3.839 26.1763 2.8502 26.1584 2.0999 C 26.1434 1.4797 26.1711 1.5588 26.3863 1.3876 L 26.8421 1.398 L 26.9875 1.9996 C 26.9994 3.1122 27.2991 4.3438 25.3256 4.1958 C 24.6591 4.1457 24.4125 3.9475 24.1251 3.6978 C 24.0769 4.2279 24.3289 5.1046 23.9545 5.5222 L 23.3263 5.5355 C 23.1965 4.7974 23.3002 3.2134 23.2736 2.2992 C 23.2722 2.2507 23.3079 1.2705 23.43 1.4675 C 23.4386 1.4817 23.4697 1.4151 23.4984 1.391 L 23.9542 1.3966 Z "/>
<path transform="matrix(2.7777777,0,0,-2.7777777,2.7777777,96.97861)" d="M 98.7018 2.7694 C 98.4951 .5786 94.1051 2.3525 98.7018 2.7694 Z M 95.9992 3.2624 C 97.4701 3.295 96.4018 3.7242 97.5453 3.8631 C 98.5141 3.9807 98.7633 3.6462 98.6961 3.0906 C 97.4673 3.0711 95.7872 2.9115 95.8442 2.0095 C 95.8997 1.1273 97.9775 1.0508 98.574 1.8077 L 98.8226 1.5613 C 99.1647 1.2866 99.3271 1.3297 99.7846 1.4309 C 99.3909 1.9905 99.4853 2.035 99.4992 2.7927 C 99.5091 3.3497 99.5666 3.7879 99.0068 4.047 C 97.8968 4.5609 96.1775 4.163 95.9992 3.2624 Z " fill="#a11814" fill-rule="evenodd"/>
<path transform="matrix(2.7777777,0,0,-2.7777777,2.7777777,96.97861)" stroke-width=".216" stroke-linecap="butt" stroke-miterlimit="2.6131259" stroke-linejoin="miter" fill="none" stroke="#a11814" d="M 98.7018 2.7694 C 98.4951 .5786 94.1051 2.3525 98.7018 2.7694 Z M 95.9992 3.2624 C 97.4701 3.295 96.4018 3.7242 97.5453 3.8631 C 98.5141 3.9807 98.7633 3.6462 98.6961 3.0906 C 97.4673 3.0711 95.7872 2.9115 95.8442 2.0095 C 95.8997 1.1273 97.9775 1.0508 98.574 1.8077 L 98.8226 1.5613 C 99.1647 1.2866 99.3271 1.3297 99.7846 1.4309 C 99.3909 1.9905 99.4853 2.035 99.4992 2.7927 C 99.5091 3.3497 99.5666 3.7879 99.0068 4.047 C 97.8968 4.5609 96.1775 4.163 95.9992 3.2624 Z "/>
<path transform="matrix(2.7777777,0,0,-2.7777777,2.7777777,96.97861)" d="M 76.1723 3.0492 C 76.3322 3.5374 76.5941 3.8988 77.4527 3.8741 C 78.2323 3.8517 78.4168 3.545 78.5407 3.0611 Z M 79.2539 2.0058 C 78.334 2.5075 78.9307 1.6603 77.4584 1.6838 C 76.4325 1.7002 76.2664 2.122 76.1187 2.6833 L 79.4134 2.7057 C 79.2765 4.7934 75.9472 4.5646 75.4036 3.234 C 74.5534 1.1526 78.641 .7206 79.2539 2.0058 Z " fill="#a11814" fill-rule="evenodd"/>
<path transform="matrix(2.7777777,0,0,-2.7777777,2.7777777,96.97861)" stroke-width=".216" stroke-linecap="butt" stroke-miterlimit="2.6131259" stroke-linejoin="miter" fill="none" stroke="#a11814" d="M 76.1723 3.0492 C 76.3322 3.5374 76.5941 3.8988 77.4527 3.8741 C 78.2323 3.8517 78.4168 3.545 78.5407 3.0611 Z M 79.2539 2.0058 C 78.334 2.5075 78.9307 1.6603 77.4584 1.6838 C 76.4325 1.7002 76.2664 2.122 76.1187 2.6833 L 79.4134 2.7057 C 79.2765 4.7934 75.9472 4.5646 75.4036 3.234 C 74.5534 1.1526 78.641 .7206 79.2539 2.0058 Z "/>
<path transform="matrix(2.7777777,0,0,-2.7777777,2.7777777,96.97861)" d="M 55.4105 3.0557 C 55.5293 3.5175 55.8045 3.8786 56.6286 3.8744 C 57.5079 3.8696 57.585 3.5561 57.8134 3.0711 Z M 58.4016 2.0761 C 57.2749 2.2629 58.0317 1.5695 56.4902 1.6937 C 55.686 1.7583 55.4445 2.1132 55.3643 2.6909 L 58.6111 2.6915 C 58.5845 4.8098 55.0519 4.5794 54.574 3.1382 C 53.8662 1.0049 58.3591 .8158 58.4016 2.0761 Z " fill="#a11814" fill-rule="evenodd"/>
<path transform="matrix(2.7777777,0,0,-2.7777777,2.7777777,96.97861)" stroke-width=".216" stroke-linecap="butt" stroke-miterlimit="2.6131259" stroke-linejoin="miter" fill="none" stroke="#a11814" d="M 55.4105 3.0557 C 55.5293 3.5175 55.8045 3.8786 56.6286 3.8744 C 57.5079 3.8696 57.585 3.5561 57.8134 3.0711 Z M 58.4016 2.0761 C 57.2749 2.2629 58.0317 1.5695 56.4902 1.6937 C 55.686 1.7583 55.4445 2.1132 55.3643 2.6909 L 58.6111 2.6915 C 58.5845 4.8098 55.0519 4.5794 54.574 3.1382 C 53.8662 1.0049 58.3591 .8158 58.4016 2.0761 Z "/>
<path transform="matrix(2.7777777,0,0,-2.7777777,2.7777777,96.97861)" d="M 107.4764 3.7383 C 109.4128 4.3985 109.7799 2.2374 108.7611 1.8159 C 107.9022 1.4604 106.9954 1.7949 106.8055 2.3159 C 106.7066 2.5877 106.6952 2.9928 106.8072 3.2618 C 106.9838 3.687 107.1091 3.613 107.4764 3.7383 Z M 105.8956 2.3987 C 106.2743 .7869 110.723 .8357 110.1013 3.1669 C 109.669 4.7886 105.3643 4.6585 105.8956 2.3987 Z " fill="#a11814" fill-rule="evenodd"/>
<path transform="matrix(2.7777777,0,0,-2.7777777,2.7777777,96.97861)" stroke-width=".216" stroke-linecap="butt" stroke-miterlimit="2.6131259" stroke-linejoin="miter" fill="none" stroke="#a11814" d="M 107.4764 3.7383 C 109.4128 4.3985 109.7799 2.2374 108.7611 1.8159 C 107.9022 1.4604 106.9954 1.7949 106.8055 2.3159 C 106.7066 2.5877 106.6952 2.9928 106.8072 3.2618 C 106.9838 3.687 107.1091 3.613 107.4764 3.7383 Z M 105.8956 2.3987 C 106.2743 .7869 110.723 .8357 110.1013 3.1669 C 109.669 4.7886 105.3643 4.6585 105.8956 2.3987 Z "/>
<path transform="matrix(2.7777777,0,0,-2.7777777,2.7777777,96.97861)" d="M 83.2782 3.041 C 83.6203 4.1893 85.4087 4.1984 85.6587 3.0597 Z M 86.0709 2.1623 C 85.2962 2.0597 85.6191 1.5619 84.3069 1.6937 C 83.5515 1.7697 83.2907 2.1563 83.2391 2.6901 L 86.4272 2.6909 C 86.4091 4.9192 82.8204 4.5374 82.4474 3.083 C 81.7826 .4915 87.1588 1.2464 86.0709 2.1623 Z " fill="#a11814" fill-rule="evenodd"/>
<path transform="matrix(2.7777777,0,0,-2.7777777,2.7777777,96.97861)" stroke-width=".216" stroke-linecap="butt" stroke-miterlimit="2.6131259" stroke-linejoin="miter" fill="none" stroke="#a11814" d="M 83.2782 3.041 C 83.6203 4.1893 85.4087 4.1984 85.6587 3.0597 Z M 86.0709 2.1623 C 85.2962 2.0597 85.6191 1.5619 84.3069 1.6937 C 83.5515 1.7697 83.2907 2.1563 83.2391 2.6901 L 86.4272 2.6909 C 86.4091 4.9192 82.8204 4.5374 82.4474 3.083 C 81.7826 .4915 87.1588 1.2464 86.0709 2.1623 Z "/>
<path transform="matrix(2.7777777,0,0,-2.7777777,2.7777777,96.97861)" d="M 34.1379 1.3929 C 34.2386 1.4939 34.2096 1.4318 34.276 1.6257 L 34.3069 2.3014 C 34.2848 3.1022 34.3922 3.996 36.1712 3.7046 C 36.6497 2.8891 36.3095 2.2785 36.4235 1.7135 C 36.4297 1.6824 36.4391 1.654 36.4467 1.6271 L 37.0259 1.3969 C 37.3062 1.6308 37.2314 1.563 37.2266 2.0058 C 37.2178 2.7907 37.4159 3.852 36.4921 4.1227 C 35.4563 4.426 34.7661 4.0136 34.4401 3.6805 C 33.9585 4.2114 34.827 4.1414 33.6821 4.1913 C 33.4451 3.9277 33.4902 3.1844 33.516 1.9993 L 33.6821 1.4014 Z " fill="#a11814" fill-rule="evenodd"/>
<path transform="matrix(2.7777777,0,0,-2.7777777,2.7777777,96.97861)" stroke-width=".216" stroke-linecap="butt" stroke-miterlimit="2.6131259" stroke-linejoin="miter" fill="none" stroke="#a11814" d="M 34.1379 1.3929 C 34.2386 1.4939 34.2096 1.4318 34.276 1.6257 L 34.3069 2.3014 C 34.2848 3.1022 34.3922 3.996 36.1712 3.7046 C 36.6497 2.8891 36.3095 2.2785 36.4235 1.7135 C 36.4297 1.6824 36.4391 1.654 36.4467 1.6271 L 37.0259 1.3969 C 37.3062 1.6308 37.2314 1.563 37.2266 2.0058 C 37.2178 2.7907 37.4159 3.852 36.4921 4.1227 C 35.4563 4.426 34.7661 4.0136 34.4401 3.6805 C 33.9585 4.2114 34.827 4.1414 33.6821 4.1913 C 33.4451 3.9277 33.4902 3.1844 33.516 1.9993 L 33.6821 1.4014 Z "/>
<path transform="matrix(2.7777777,0,0,-2.7777777,2.7777777,96.97861)" d="M 111.3514 1.3907 C 112.1879 1.4136 111.8531 1.277 111.9736 1.6985 C 111.9912 1.7592 111.5583 4.2273 113.5738 3.7449 C 114.5563 3.5096 113.7634 1.9057 114.2393 1.3924 L 114.6954 1.3881 L 114.8757 1.9998 C 114.8794 2.1909 114.8635 2.3998 114.8641 2.5954 C 114.8655 3.0056 114.9372 3.4537 114.7017 3.7783 C 114.2507 4.3994 112.6148 4.3733 112.1083 3.6896 L 111.8891 4.0314 C 111.7199 4.1649 112.2829 4.1445 111.3514 4.1876 C 111.2355 4.0586 111.3324 4.2942 111.2267 3.9569 C 111.185 3.8245 111.2091 3.922 111.1898 3.7783 C 111.1439 3.439 111.1243 1.6523 111.3514 1.3907 Z " fill="#a11814" fill-rule="evenodd"/>
<path transform="matrix(2.7777777,0,0,-2.7777777,2.7777777,96.97861)" stroke-width=".216" stroke-linecap="butt" stroke-miterlimit="2.6131259" stroke-linejoin="miter" fill="none" stroke="#a11814" d="M 111.3514 1.3907 C 112.1879 1.4136 111.8531 1.277 111.9736 1.6985 C 111.9912 1.7592 111.5583 4.2273 113.5738 3.7449 C 114.5563 3.5096 113.7634 1.9057 114.2393 1.3924 L 114.6954 1.3881 L 114.8757 1.9998 C 114.8794 2.1909 114.8635 2.3998 114.8641 2.5954 C 114.8655 3.0056 114.9372 3.4537 114.7017 3.7783 C 114.2507 4.3994 112.6148 4.3733 112.1083 3.6896 L 111.8891 4.0314 C 111.7199 4.1649 112.2829 4.1445 111.3514 4.1876 C 111.2355 4.0586 111.3324 4.2942 111.2267 3.9569 C 111.185 3.8245 111.2091 3.922 111.1898 3.7783 C 111.1439 3.439 111.1243 1.6523 111.3514 1.3907 Z "/>
<path transform="matrix(2.7777777,0,0,-2.7777777,2.7777777,96.97861)" d="M 62.6947 4.1944 C 63.3869 2.6444 64.5486 1.4947 63.9556 .9122 C 63.3472 .3146 62.9501 .758 62.8812 .2373 C 64.1752 -.2546 64.7872 1.1543 65.1677 1.7926 C 65.5197 2.3839 66.3494 3.5563 66.5306 4.1754 C 65.7334 4.1834 65.8131 4.2316 65.5744 3.7843 C 65.3068 3.2822 64.8873 2.1844 64.546 1.8105 L 63.6426 3.8837 C 63.362 4.3106 63.5255 4.1675 62.6947 4.1944 Z " fill="#a11814" fill-rule="evenodd"/>
<path transform="matrix(2.7777777,0,0,-2.7777777,2.7777777,96.97861)" stroke-width=".216" stroke-linecap="butt" stroke-miterlimit="2.6131259" stroke-linejoin="miter" fill="none" stroke="#a11814" d="M 62.6947 4.1944 C 63.3869 2.6444 64.5486 1.4947 63.9556 .9122 C 63.3472 .3146 62.9501 .758 62.8812 .2373 C 64.1752 -.2546 64.7872 1.1543 65.1677 1.7926 C 65.5197 2.3839 66.3494 3.5563 66.5306 4.1754 C 65.7334 4.1834 65.8131 4.2316 65.5744 3.7843 C 65.3068 3.2822 64.8873 2.1844 64.546 1.8105 L 63.6426 3.8837 C 63.362 4.3106 63.5255 4.1675 62.6947 4.1944 Z "/>
<path transform="matrix(2.7777777,0,0,-2.7777777,2.7777777,96.97861)" d="M 11.7882 1.3989 C 12.4997 1.3961 13.2114 1.3952 13.9232 1.3915 C 16.1561 1.3791 15.4497 1.3391 15.6257 1.6126 C 15.3882 1.8865 15.8814 1.749 15.0012 1.7966 L 12.672 1.7833 L 12.6672 5.1352 L 11.7992 5.1491 Z " fill="#a11814" fill-rule="evenodd"/>
<path transform="matrix(2.7777777,0,0,-2.7777777,2.7777777,96.97861)" stroke-width=".216" stroke-linecap="butt" stroke-miterlimit="2.6131259" stroke-linejoin="miter" fill="none" stroke="#a11814" d="M 11.7882 1.3989 C 12.4997 1.3961 13.2114 1.3952 13.9232 1.3915 C 16.1561 1.3791 15.4497 1.3391 15.6257 1.6126 C 15.3882 1.8865 15.8814 1.749 15.0012 1.7966 L 12.672 1.7833 L 12.6672 5.1352 L 11.7992 5.1491 Z "/>
<path transform="matrix(2.7777777,0,0,-2.7777777,2.7777777,96.97861)" d="M 50.0902 4.1777 C 50.3016 3.6204 50.6169 3.1799 50.9202 2.6368 C 51.3873 1.8011 51.4071 1.3541 52.0566 1.3975 C 52.6113 1.4346 52.2349 1.2671 52.5728 1.6812 L 54.0731 4.1805 C 53.2517 4.1732 53.3795 4.2667 53.1 3.7945 L 52.0733 1.802 L 51.7011 2.552 C 51.5942 2.7822 51.4885 2.992 51.3731 3.2224 C 51.2881 3.3917 51.1092 3.812 51.0506 3.8976 C 50.7733 4.3036 50.9474 4.1698 50.0902 4.1777 Z " fill="#a11814" fill-rule="evenodd"/>
<path transform="matrix(2.7777777,0,0,-2.7777777,2.7777777,96.97861)" stroke-width=".216" stroke-linecap="butt" stroke-miterlimit="2.6131259" stroke-linejoin="miter" fill="none" stroke="#a11814" d="M 50.0902 4.1777 C 50.3016 3.6204 50.6169 3.1799 50.9202 2.6368 C 51.3873 1.8011 51.4071 1.3541 52.0566 1.3975 C 52.6113 1.4346 52.2349 1.2671 52.5728 1.6812 L 54.0731 4.1805 C 53.2517 4.1732 53.3795 4.2667 53.1 3.7945 L 52.0733 1.802 L 51.7011 2.552 C 51.5942 2.7822 51.4885 2.992 51.3731 3.2224 C 51.2881 3.3917 51.1092 3.812 51.0506 3.8976 C 50.7733 4.3036 50.9474 4.1698 50.0902 4.1777 Z "/>
<path transform="matrix(2.7777777,0,0,-2.7777777,2.7777777,96.97861)" d="M 30.1238 3.9124 C 30.151 3.9166 30.2145 3.9112 30.2335 3.9402 C 30.2522 3.9682 30.3069 3.9569 30.3389 3.9705 C 30.1972 4.2211 30.3914 4.1896 29.1447 4.182 C 29.1129 4.5289 29.2297 4.7747 28.9701 5.0097 C 28.2801 4.8719 28.6676 4.7149 28.4145 4.2653 C 27.8734 4.1318 27.9125 4.2849 27.4762 4.0689 C 27.6656 3.9387 27.379 3.8747 28.3609 3.8693 C 28.3589 3.4274 28.2747 2.1917 28.4097 1.8369 C 28.531 1.5168 28.8255 1.383 29.3014 1.3303 C 30.6079 1.1849 30.3905 1.5894 30.4033 1.6126 C 30.3633 1.6271 30.306 1.6328 30.2717 1.6381 L 29.8695 1.6977 C 29.5123 1.7524 29.7482 1.6288 29.4001 1.7884 C 29.128 1.9128 29.1356 2.1263 29.1243 2.3913 C 29.103 2.8738 29.13 3.382 29.1214 3.8693 Z " fill="#a11814" fill-rule="evenodd"/>
<path transform="matrix(2.7777777,0,0,-2.7777777,2.7777777,96.97861)" stroke-width=".216" stroke-linecap="butt" stroke-miterlimit="2.6131259" stroke-linejoin="miter" fill="none" stroke="#a11814" d="M 30.1238 3.9124 C 30.151 3.9166 30.2145 3.9112 30.2335 3.9402 C 30.2522 3.9682 30.3069 3.9569 30.3389 3.9705 C 30.1972 4.2211 30.3914 4.1896 29.1447 4.182 C 29.1129 4.5289 29.2297 4.7747 28.9701 5.0097 C 28.2801 4.8719 28.6676 4.7149 28.4145 4.2653 C 27.8734 4.1318 27.9125 4.2849 27.4762 4.0689 C 27.6656 3.9387 27.379 3.8747 28.3609 3.8693 C 28.3589 3.4274 28.2747 2.1917 28.4097 1.8369 C 28.531 1.5168 28.8255 1.383 29.3014 1.3303 C 30.6079 1.1849 30.3905 1.5894 30.4033 1.6126 C 30.3633 1.6271 30.306 1.6328 30.2717 1.6381 L 29.8695 1.6977 C 29.5123 1.7524 29.7482 1.6288 29.4001 1.7884 C 29.128 1.9128 29.1356 2.1263 29.1243 2.3913 C 29.103 2.8738 29.13 3.382 29.1214 3.8693 Z "/>
<path transform="matrix(2.7777777,0,0,-2.7777777,2.7777777,96.97861)" d="M 103.0354 3.9705 C 102.8398 4.2551 103.0286 4.1128 102.541 4.1907 C 102.5359 4.1916 101.9364 4.2038 101.8366 4.2097 L 101.6836 4.9127 C 101.6753 4.9586 101.6498 4.9691 101.6237 4.9938 C 100.9573 4.7701 101.5418 4.9028 101.0565 4.2279 C 100.6546 4.1695 100.5262 4.2069 100.2302 4.0689 C 100.6971 3.7514 100.7654 3.8764 101.0713 3.774 C 101.0727 3.3199 100.98 2.1274 101.1487 1.7938 C 101.4344 1.2285 102.4478 1.2611 102.7752 1.349 C 103.3991 1.5165 102.99 1.2864 103.1077 1.6126 C 102.4401 1.9281 101.8896 1.4502 101.8321 2.3003 C 101.7975 2.8069 101.8587 3.318 101.8123 3.837 C 102.0634 3.8591 102.3333 3.854 102.5317 3.8752 Z " fill="#a11814" fill-rule="evenodd"/>
<path transform="matrix(2.7777777,0,0,-2.7777777,2.7777777,96.97861)" stroke-width=".216" stroke-linecap="butt" stroke-miterlimit="2.6131259" stroke-linejoin="miter" fill="none" stroke="#a11814" d="M 103.0354 3.9705 C 102.8398 4.2551 103.0286 4.1128 102.541 4.1907 C 102.5359 4.1916 101.9364 4.2038 101.8366 4.2097 L 101.6836 4.9127 C 101.6753 4.9586 101.6498 4.9691 101.6237 4.9938 C 100.9573 4.7701 101.5418 4.9028 101.0565 4.2279 C 100.6546 4.1695 100.5262 4.2069 100.2302 4.0689 C 100.6971 3.7514 100.7654 3.8764 101.0713 3.774 C 101.0727 3.3199 100.98 2.1274 101.1487 1.7938 C 101.4344 1.2285 102.4478 1.2611 102.7752 1.349 C 103.3991 1.5165 102.99 1.2864 103.1077 1.6126 C 102.4401 1.9281 101.8896 1.4502 101.8321 2.3003 C 101.7975 2.8069 101.8587 3.318 101.8123 3.837 C 102.0634 3.8591 102.3333 3.854 102.5317 3.8752 Z "/>
<path transform="matrix(2.7777777,0,0,-2.7777777,2.7777777,96.97861)" d="M 80.4971 5.5369 C 80.4212 4.8107 80.4733 4.0175 80.4719 3.2828 C 80.4685 1.3626 80.1346 1.4094 81.1043 1.3881 C 81.1996 1.495 81.1346 1.3178 81.2293 1.6243 C 81.2608 1.7254 81.2642 1.798 81.2713 1.9012 C 81.318 2.6028 81.4005 5.2316 81.1043 5.529 Z " fill="#a11814" fill-rule="evenodd"/>
<path transform="matrix(2.7777777,0,0,-2.7777777,2.7777777,96.97861)" stroke-width=".216" stroke-linecap="butt" stroke-miterlimit="2.6131259" stroke-linejoin="miter" fill="none" stroke="#a11814" d="M 80.4971 5.5369 C 80.4212 4.8107 80.4733 4.0175 80.4719 3.2828 C 80.4685 1.3626 80.1346 1.4094 81.1043 1.3881 C 81.1996 1.495 81.1346 1.3178 81.2293 1.6243 C 81.2608 1.7254 81.2642 1.798 81.2713 1.9012 C 81.318 2.6028 81.4005 5.2316 81.1043 5.529 Z "/>
<path transform="matrix(2.7777777,0,0,-2.7777777,2.7777777,96.97861)" d="M 60.4874 2.5951 C 60.4874 2.9903 60.5021 3.2717 60.8335 3.5147 C 61.4551 3.9705 61.683 3.6128 62.064 3.7508 C 62.7375 3.9946 62.0827 4.2979 61.3894 4.1726 C 60.9052 4.085 60.6892 3.7783 60.4514 3.598 C 60.3618 4.2066 60.5704 4.1649 59.6701 4.1757 C 59.6733 3.6816 59.6789 3.1876 59.6781 2.6935 L 59.7005 1.6245 C 59.7472 1.4451 59.7416 1.4941 59.8252 1.3978 L 60.281 1.3895 C 60.6192 1.6727 60.4874 2.1115 60.4874 2.5951 Z " fill="#a11814" fill-rule="evenodd"/>
<path transform="matrix(2.7777777,0,0,-2.7777777,2.7777777,96.97861)" stroke-width=".216" stroke-linecap="butt" stroke-miterlimit="2.6131259" stroke-linejoin="miter" fill="none" stroke="#a11814" d="M 60.4874 2.5951 C 60.4874 2.9903 60.5021 3.2717 60.8335 3.5147 C 61.4551 3.9705 61.683 3.6128 62.064 3.7508 C 62.7375 3.9946 62.0827 4.2979 61.3894 4.1726 C 60.9052 4.085 60.6892 3.7783 60.4514 3.598 C 60.3618 4.2066 60.5704 4.1649 59.6701 4.1757 C 59.6733 3.6816 59.6789 3.1876 59.6781 2.6935 L 59.7005 1.6245 C 59.7472 1.4451 59.7416 1.4941 59.8252 1.3978 L 60.281 1.3895 C 60.6192 1.6727 60.4874 2.1115 60.4874 2.5951 Z "/>
<path transform="matrix(2.7777777,0,0,-2.7777777,2.7777777,96.97861)" d="M 93.416 1.3912 C 93.5966 1.5987 93.583 1.6084 93.5768 2.1008 C 93.5456 4.6131 94.8523 3.306 95.3005 3.8477 C 95.4904 4.0774 95.2957 4.1562 94.938 4.1992 C 94.2214 4.2854 93.7644 3.8384 93.5541 3.5853 C 93.1045 4.1241 93.9161 4.106 92.9599 4.1786 C 92.6708 3.9838 92.8191 4.1964 92.7391 3.8718 L 92.8148 1.6206 C 92.8769 1.4134 92.8627 1.4865 92.9599 1.3887 Z " fill="#a11814" fill-rule="evenodd"/>
<path transform="matrix(2.7777777,0,0,-2.7777777,2.7777777,96.97861)" stroke-width=".216" stroke-linecap="butt" stroke-miterlimit="2.6131259" stroke-linejoin="miter" fill="none" stroke="#a11814" d="M 93.416 1.3912 C 93.5966 1.5987 93.583 1.6084 93.5768 2.1008 C 93.5456 4.6131 94.8523 3.306 95.3005 3.8477 C 95.4904 4.0774 95.2957 4.1562 94.938 4.1992 C 94.2214 4.2854 93.7644 3.8384 93.5541 3.5853 C 93.1045 4.1241 93.9161 4.106 92.9599 4.1786 C 92.6708 3.9838 92.8191 4.1964 92.7391 3.8718 L 92.8148 1.6206 C 92.8769 1.4134 92.8627 1.4865 92.9599 1.3887 Z "/>
<path transform="matrix(2.7777777,0,0,-2.7777777,2.7777777,96.97861)" d="M 31.4586 4.0448 C 31.2486 3.5141 31.5218 4.4518 31.4022 3.873 C 31.3858 3.7939 31.3917 3.5728 31.3926 3.4824 C 31.3943 3.2522 31.398 3.022 31.3985 2.7916 C 31.3991 2.3995 31.2647 1.7167 31.5539 1.3901 L 32.01 1.3921 C 32.3127 1.6693 32.2021 1.8527 32.2036 2.7916 C 32.2041 3.1963 32.3972 3.854 32.01 4.1916 L 31.5541 4.1975 Z " fill="#a11814" fill-rule="evenodd"/>
<path transform="matrix(2.7777777,0,0,-2.7777777,2.7777777,96.97861)" stroke-width=".216" stroke-linecap="butt" stroke-miterlimit="2.6131259" stroke-linejoin="miter" fill="none" stroke="#a11814" d="M 31.4586 4.0448 C 31.2486 3.5141 31.5218 4.4518 31.4022 3.873 C 31.3858 3.7939 31.3917 3.5728 31.3926 3.4824 C 31.3943 3.2522 31.398 3.022 31.3985 2.7916 C 31.3991 2.3995 31.2647 1.7167 31.5539 1.3901 L 32.01 1.3921 C 32.3127 1.6693 32.2021 1.8527 32.2036 2.7916 C 32.2041 3.1963 32.3972 3.854 32.01 4.1916 L 31.5541 4.1975 Z "/>
<path transform="matrix(2.7777777,0,0,-2.7777777,2.7777777,96.97861)" d="M 16.5064 4.1922 C 16.2391 3.8803 16.272 1.6622 16.5064 1.3944 L 17.0722 1.5426 C 17.0745 1.5471 17.373 3.7774 16.9625 4.1916 Z " fill="#a11814" fill-rule="evenodd"/>
<path transform="matrix(2.7777777,0,0,-2.7777777,2.7777777,96.97861)" stroke-width=".216" stroke-linecap="butt" stroke-miterlimit="2.6131259" stroke-linejoin="miter" fill="none" stroke="#a11814" d="M 16.5064 4.1922 C 16.2391 3.8803 16.272 1.6622 16.5064 1.3944 L 17.0722 1.5426 C 17.0745 1.5471 17.373 3.7774 16.9625 4.1916 Z "/>
<path transform="matrix(2.7777777,0,0,-2.7777777,2.7777777,96.97861)" d="M 103.9762 4.0388 C 103.974 4.0317 103.7701 1.7634 104.0556 1.3975 L 104.5117 1.3924 C 104.5386 1.4148 104.5675 1.4457 104.5806 1.4652 L 104.7438 3.5824 C 104.7362 3.9424 104.7231 4.0224 104.5117 4.1975 L 104.0556 4.1848 Z " fill="#a11814" fill-rule="evenodd"/>
<path transform="matrix(2.7777777,0,0,-2.7777777,2.7777777,96.97861)" stroke-width=".216" stroke-linecap="butt" stroke-miterlimit="2.6131259" stroke-linejoin="miter" fill="none" stroke="#a11814" d="M 103.9762 4.0388 C 103.974 4.0317 103.7701 1.7634 104.0556 1.3975 L 104.5117 1.3924 C 104.5386 1.4148 104.5675 1.4457 104.5806 1.4652 L 104.7438 3.5824 C 104.7362 3.9424 104.7231 4.0224 104.5117 4.1975 L 104.0556 4.1848 Z "/>
<path transform="matrix(2.7777777,0,0,-2.7777777,2.7777777,96.97861)" d="M 103.9147 4.8549 C 104.0306 4.5422 105.0205 4.5808 104.8218 5.0329 C 104.6682 5.3827 103.7432 5.3161 103.9147 4.8549 Z " fill="#a11814" fill-rule="evenodd"/>
<path transform="matrix(2.7777777,0,0,-2.7777777,2.7777777,96.97861)" stroke-width=".216" stroke-linecap="butt" stroke-miterlimit="2.6131259" stroke-linejoin="miter" fill="none" stroke="#a11814" d="M 103.9147 4.8549 C 104.0306 4.5422 105.0205 4.5808 104.8218 5.0329 C 104.6682 5.3827 103.7432 5.3161 103.9147 4.8549 Z "/>
<path transform="matrix(2.7777777,0,0,-2.7777777,2.7777777,96.97861)" d="M 16.3517 4.8549 C 16.4735 4.5442 17.4387 4.6054 17.2525 5.0306 C 17.1077 5.3609 16.1592 5.3444 16.3517 4.8549 Z " fill="#a11814" fill-rule="evenodd"/>
<path transform="matrix(2.7777777,0,0,-2.7777777,2.7777777,96.97861)" stroke-width=".216" stroke-linecap="butt" stroke-miterlimit="2.6131259" stroke-linejoin="miter" fill="none" stroke="#a11814" d="M 16.3517 4.8549 C 16.4735 4.5442 17.4387 4.6054 17.2525 5.0306 C 17.1077 5.3609 16.1592 5.3444 16.3517 4.8549 Z "/>
<path transform="matrix(2.7777777,0,0,-2.7777777,2.7777777,96.97861)" d="M 31.5541 4.7183 C 32.2761 4.5465 32.5355 4.9411 32.1866 5.1681 C 31.9167 5.3433 31.0391 5.3164 31.5541 4.7183 Z " fill="#a11814" fill-rule="evenodd"/>
<path transform="matrix(2.7777777,0,0,-2.7777777,2.7777777,96.97861)" stroke-width=".216" stroke-linecap="butt" stroke-miterlimit="2.6131259" stroke-linejoin="miter" fill="none" stroke="#a11814" d="M 31.5541 4.7183 C 32.2761 4.5465 32.5355 4.9411 32.1866 5.1681 C 31.9167 5.3433 31.0391 5.3164 31.5541 4.7183 Z "/>
<path transform="matrix(2.7777777,0,0,-2.7777777,2.7777777,96.97861)" d="M 23.5259 29.3468 C 23.7552 28.9681 25.0381 28.4873 25.6175 28.224 L 30.2221 26.0473 C 30.8095 25.7794 32.0329 25.1237 32.7444 25.0452 L 32.8116 31.8353 C 32.19 31.9399 31.1196 31.5096 30.4376 31.3339 C 29.215 31.0187 24.1067 29.6144 23.5259 29.3468 " fill="#f1c205" fill-rule="evenodd"/>
<path transform="matrix(2.7777777,0,0,-2.7777777,2.7777777,96.97861)" d="M 16.6487 20.5058 C 16.3562 20.3751 15.4386 19.5812 15.2456 19.3343 L 23.9876 19.9069 C 24.336 20.0639 25.0393 20.7184 25.2601 20.9693 Z " fill="#f1c205" fill-rule="evenodd"/>
<path transform="matrix(2.7777777,0,0,-2.7777777,2.7777777,96.97861)" d="M 19.6659 23.2551 C 19.302 23.1089 18.447 22.2491 18.3149 22.0657 C 20.8695 22.2089 24.4188 22.6653 26.9294 22.5918 C 27.3804 22.8118 27.9017 23.3229 28.1225 23.6307 C 27.0652 23.8456 21.3214 23.1823 19.6659 23.2551 " fill="#f1c205" fill-rule="evenodd"/>
<path transform="matrix(2.7777777,0,0,-2.7777777,2.7777777,96.97861)" d="M 22.8504 26.0535 C 22.3342 25.8829 21.8976 25.3315 21.505 24.9928 C 22.1496 24.694 27.163 25.4021 29.3655 25.3811 C 29.1875 25.5234 27.9179 26.1105 27.5417 26.2854 Z " fill="#f1c205" fill-rule="evenodd"/>
<path transform="matrix(2.7777777,0,0,-2.7777777,2.7777777,96.97861)" d="M 0 23.8844 C .0683 23.6976 -.1429 23.5593 1.3459 23.5063 C 5.5349 23.3578 5.8374 23.5675 10.6464 22.9343 C 11.6121 22.8073 13.0329 22.5003 14.0573 22.5176 C 13.1034 23.7869 .6962 24.2271 0 23.8844 " fill="#0a449b" fill-rule="evenodd"/>
<path transform="matrix(2.7777777,0,0,-2.7777777,2.7777777,96.97861)" d="M 7.3168 13.4666 C 6.7615 13.6675 6.6929 13.8742 6.0548 14.0706 L 6.2393 13.244 L 4.6809 13.0419 L 6.1002 12.5952 L 5.5443 11.7507 L 7.1572 12.208 L 7.6929 11.3066 L 8.1391 12.1158 L 9.7257 11.9455 C 9.5573 12.2485 9.0984 12.3403 8.7894 12.6867 C 9.231 12.9331 9.5879 13.0462 9.9164 13.3384 L 8.373 13.2829 L 8.3857 14.2574 C 7.8786 14.0253 7.8083 13.792 7.3168 13.4666 " fill="#f1c205" fill-rule="evenodd"/>
<path transform="matrix(2.7777777,0,0,-2.7777777,2.7777777,96.97861)" d="M 3.2066 16.4387 C 4.0521 16.4511 8.0328 17.8937 8.8736 18.2242 C 9.8597 18.6117 13.7205 19.9213 13.9827 20.391 C 12.562 20.393 6.3468 17.8146 4.303 17.1269 C 3.6907 16.9209 3.1615 16.8934 3.2066 16.4387 " fill="#0a449b" fill-rule="evenodd"/>
<path transform="matrix(2.7777777,0,0,-2.7777777,2.7777777,96.97861)" d="M 14.5956 25.9172 C 14.5806 26.949 8.1281 31.7829 7.3128 31.2676 C 6.9721 31.0521 7.7258 30.7259 7.9197 30.6153 L 10.8091 28.6092 C 11.3919 28.1642 14.1358 26.0325 14.5956 25.9172 " fill="#0a449b" fill-rule="evenodd"/>
<path transform="matrix(2.7777777,0,0,-2.7777777,2.7777777,96.97861)" d="M 16.0342 10.8434 C 16.634 10.9414 16.5308 11.01 16.7272 11.4676 C 17.3458 12.9095 17.9586 14.1693 18.0459 15.69 C 18.0737 16.1731 18.2526 17.1799 17.7163 17.4997 C 17.261 17.0929 17.104 14.7892 16.9013 14.0842 C 16.7315 13.4938 16.5835 13.0173 16.3797 12.4764 C 16.1206 11.7876 15.6107 11.1654 16.0342 10.8434 " fill="#0a449b" fill-rule="evenodd"/>
<path transform="matrix(2.7777777,0,0,-2.7777777,2.7777777,96.97861)" d="M 21.505 24.9928 C 21.0776 24.7062 19.8601 23.69 19.6659 23.2551 C 21.3214 23.1823 27.0652 23.8456 28.1225 23.6307 C 28.4658 23.8263 29.6201 24.8295 29.7828 25.1592 L 29.3655 25.3811 C 27.163 25.4021 22.1496 24.694 21.505 24.9928 " fill="#a11814" fill-rule="evenodd"/>
<path transform="matrix(2.7777777,0,0,-2.7777777,2.7777777,96.97861)" d="M 18.3149 22.0657 L 16.6487 20.5058 L 25.2601 20.9693 C 25.4718 21.1289 26.8106 22.3328 26.9294 22.5918 C 24.4188 22.6653 20.8695 22.2089 18.3149 22.0657 " fill="#a11814" fill-rule="evenodd"/>
<path transform="matrix(2.7777777,0,0,-2.7777777,2.7777777,96.97861)" d="M 15.2456 19.3343 C 15.6728 18.8875 17.0955 18.3396 17.8277 18.0337 C 18.5037 17.7511 19.9089 16.9693 20.7751 16.9472 C 21.1133 17.1349 23.7657 19.6095 23.9876 19.9069 Z " fill="#a11814" fill-rule="evenodd"/>
<path transform="matrix(2.7777777,0,0,-2.7777777,2.7777777,96.97861)" d="M 22.8504 26.0535 L 27.5417 26.2854 C 26.8044 26.6922 25.3324 27.6151 24.5948 27.7892 C 24.1733 27.3033 23.0394 26.5584 22.8504 26.0535 " fill="#a11814" fill-rule="evenodd"/>
<path transform="matrix(2.7777777,0,0,-2.7777777,2.7777777,96.97861)" d="M 19.0928 27.5159 C 19.796 28.247 19.1965 31.4668 18.9592 32.5341 C 18.8504 33.0239 18.9408 33.8298 18.0221 33.876 C 17.68 33.5585 18.4697 31.4169 18.5732 30.873 C 18.663 30.4002 18.9952 27.644 19.0928 27.5159 " fill="#0a449b" fill-rule="evenodd"/>
<path transform="matrix(2.7777777,0,0,-2.7777777,2.7777777,96.97861)" d="M 11.9049 13.3214 C 12.4118 13.3917 12.4288 13.4872 12.8052 13.7931 C 13.9453 14.7186 17.1133 17.3486 17.0753 18.2373 C 16.3718 18.0062 14.0746 15.6206 12.8772 14.6554 C 12.5025 14.3532 11.5546 13.6899 11.9049 13.3214 " fill="#0a449b" fill-rule="evenodd"/>
<path transform="matrix(2.7777777,0,0,-2.7777777,2.7777777,96.97861)" d="M 31.5978 18.089 L 30.253 18.1701 C 30.4104 17.8747 30.6439 17.7344 30.8608 17.5119 C 30.6836 17.1884 30.4866 17.1099 30.3403 16.78 L 31.6287 16.9741 L 32.5964 16.4143 L 32.6622 17.2947 C 33.0976 17.3341 33.5381 17.4824 33.9508 17.5782 C 33.9182 17.5944 33.8638 17.64 33.8448 17.6204 L 32.7376 17.9016 C 32.4252 18.0814 32.6285 18.1369 32.3997 18.5179 C 32.3135 18.6613 32.3101 18.6593 32.2257 18.7353 Z " fill="#f1c205" fill-rule="evenodd"/>
<path transform="matrix(2.7777777,0,0,-2.7777777,2.7777777,96.97861)" d="M 35.6692 25.7581 L 34.5319 25.5489 C 34.7151 25.2927 35.2199 25.3239 35.466 25.1586 C 35.7097 24.9948 35.6797 24.6453 35.7423 24.4009 C 36.2449 24.5673 36.394 24.8145 36.6627 25.0648 L 37.8771 24.8751 C 37.7674 25.2224 37.4788 25.2726 37.5021 25.5107 C 37.5228 25.7216 37.872 25.8443 38.0529 26.1649 C 37.5741 26.1479 37.0386 26.022 36.6256 26.13 C 36.1346 26.2585 36.3455 26.447 35.7812 26.6134 Z " fill="#0a449b" fill-rule="evenodd"/>
<path transform="matrix(2.7777777,0,0,-2.7777777,2.7777777,96.97861)" d="M 5.0916 27.2075 C 4.5312 27.0952 4.1148 27.1145 3.7913 26.9473 C 4.3586 26.7644 4.3489 26.7806 4.7812 26.4878 L 4.5451 25.8103 C 6.0891 26.2256 5.1627 26.267 6.7581 25.8352 L 6.5339 26.6142 C 7.0143 26.9155 7.1039 26.7922 7.3338 27.2044 L 6.1733 27.2151 C 5.94 27.4031 6.029 27.3419 5.8462 27.5525 L 5.4697 27.8895 Z " fill="#f1c205" fill-rule="evenodd"/>
<path transform="matrix(2.7777777,0,0,-2.7777777,2.7777777,96.97861)" d="M 31.7934 22.07 C 33.2643 22.3716 32.4343 22.0181 33.6498 21.8344 C 33.6311 22.108 33.442 22.4124 33.6305 22.61 C 33.9435 22.9382 34.0396 22.6678 34.2587 23.1746 C 33.5477 23.1718 33.1586 23.0066 32.8759 23.0233 C 32.3436 23.055 32.4845 23.3169 31.5454 23.2053 C 31.5184 22.8574 31.6843 22.9725 31.8212 22.7344 C 31.9377 22.5317 31.7786 22.386 31.7934 22.07 " fill="#f1c205" fill-rule="evenodd"/>
<path transform="matrix(2.7777777,0,0,-2.7777777,2.7777777,96.97861)" d="M 1.5171 20.0792 L 2.3964 19.8434 C 2.4418 19.5188 2.3635 19.5619 2.5758 19.3034 L 3.3216 19.6733 L 4.288 19.5015 C 3.9557 20.3604 3.7653 19.5687 4.2814 20.5472 C 3.2173 20.5027 3.4033 20.4426 2.7289 20.8213 L 2.5115 20.5291 C 2.1841 20.0716 2.1387 20.3757 1.5171 20.0792 " fill="#0a449b" fill-rule="evenodd"/>
<path transform="matrix(2.7777777,0,0,-2.7777777,2.7777777,96.97861)" d="M 21.3868 13.0218 C 21.509 13.0924 21.7363 12.9067 21.6567 13.6857 C 21.5838 14.3949 21.3182 15.287 20.7711 15.8664 C 20.505 15.5784 20.7448 14.7631 20.8222 14.4442 C 20.9188 14.0445 20.8443 13.2633 21.3868 13.0218 " fill="#e9d629" fill-rule="evenodd"/>
<path transform="matrix(2.7777777,0,0,-2.7777777,2.7777777,96.97861)" d="M 22.197 32.2792 C 22.9482 31.8926 22.7857 31.9054 22.7443 31.2437 C 23.8691 31.3727 22.7684 31.4983 24.2184 31.7384 L 24.719 31.896 C 23.703 32.4397 23.9717 31.8226 23.3717 32.7146 Z " fill="#0a449b" fill-rule="evenodd"/>
<path transform="matrix(2.7777777,0,0,-2.7777777,2.7777777,96.97861)" d="M 9.9028 24.9769 C 10.4683 24.5276 13.1567 23.7317 13.8858 23.6968 C 13.593 24.0565 12.8378 24.3017 12.1294 24.5676 C 11.6195 24.7589 10.5094 25.1974 9.9028 24.9769 " fill="#e9d629" fill-rule="evenodd"/>
<path transform="matrix(2.7777777,0,0,-2.7777777,2.7777777,96.97861)" d="M 15.8953 27.6744 C 15.8236 28.2512 15.1308 29.5132 14.3518 29.696 C 14.0987 29.363 14.5431 28.9057 14.7796 28.6038 L 15.4519 27.913 C 15.4811 27.8915 15.5673 27.8286 15.5999 27.8096 C 15.7711 27.7087 15.6977 27.7566 15.8953 27.6744 " fill="#e9d629" fill-rule="evenodd"/>
<path transform="matrix(2.7777777,0,0,-2.7777777,2.7777777,96.97861)" d="M 7.8928 20.334 C 8.6088 20.0614 11.2286 20.6804 11.4058 20.8528 C 10.2285 20.9752 8.5992 20.7275 7.8928 20.334 " fill="#e9d629" fill-rule="evenodd"/>
<path transform="matrix(2.7777777,0,0,-2.7777777,2.7777777,96.97861)" d="M 12.8945 32.2603 C 12.9203 32.4303 13.0071 32.6979 13.3741 32.669 C 13.6706 32.6458 13.8294 32.4774 13.9218 32.324 C 13.5153 32.1216 14.0389 32.188 13.4218 32.1565 C 12.494 32.1089 13.0286 32.214 12.8945 32.2603 Z M 13.0547 32.7107 L 12.2363 32.6092 C 12.5459 32.3617 12.206 32.5222 12.7054 32.3892 L 12.5422 31.8779 C 12.9787 31.9326 12.9702 31.9717 13.4158 32.0539 C 13.6295 31.9173 13.7109 31.858 13.9808 31.7489 L 13.8929 32.279 L 14.5355 32.5933 L 13.6261 32.6449 C 13.5343 32.9097 13.5558 32.8791 13.297 33.0744 Z " fill="#f4e43a" fill-rule="evenodd"/>
<path transform="matrix(2.7777777,0,0,-2.7777777,2.7777777,96.97861)" d="M 20.6184 28.2489 C 21.1884 28.438 21.6927 29.4608 21.638 29.6079 C 21.5195 29.9271 21.524 29.7337 21.3868 29.8094 C 20.8208 29.5274 20.5926 28.8221 20.6184 28.2489 " fill="#e9d629" fill-rule="evenodd"/>
<path transform="matrix(2.7777777,0,0,-2.7777777,2.7777777,96.97861)" d="M 38.6541 20.9699 L 38.6286 21.2443 C 39.1034 21.4387 39.0447 21.3871 39.2689 21.6108 L 38.4018 21.6351 L 38.2663 21.8013 C 38.2329 21.782 38.1838 21.7803 38.1645 21.7443 C 38.1461 21.7097 38.0886 21.7029 38.0631 21.6921 C 37.4479 21.4364 37.2419 21.7335 37.5769 21.2448 C 37.838 20.8641 37.5259 21.259 38.6541 20.9699 " fill="#f1c205" fill-rule="evenodd"/>
<path transform="matrix(2.7777777,0,0,-2.7777777,2.7777777,96.97861)" d="M 38.6541 20.9699 C 37.5259 21.259 37.838 20.8641 37.5769 21.2448 C 37.2419 21.7335 37.4479 21.4364 38.0631 21.6921 C 38.0886 21.7029 38.1461 21.7097 38.1645 21.7443 C 38.1838 21.7803 38.2329 21.782 38.2663 21.8013 L 38.1759 22.0467 C 37.7521 21.7525 37.887 21.6247 36.9266 21.655 L 37.3805 21.2445 L 37.135 20.7802 C 37.5902 20.8434 37.5075 20.8587 37.9037 20.9656 C 38.3017 20.8559 38.2932 20.8052 38.6847 20.6921 Z " fill="#f4e43a" fill-rule="evenodd"/>
<path transform="matrix(2.7777777,0,0,-2.7777777,2.7777777,96.97861)" d="M 10.381 15.3227 C 11.2808 15.4471 11.7351 15.9148 12.0594 16.3772 C 11.3097 16.2014 10.4916 15.8185 10.381 15.3227 " fill="#e9d629" fill-rule="evenodd"/>
<path transform="matrix(2.7777777,0,0,-2.7777777,2.7777777,96.97861)" d="M 12.8945 32.2603 C 13.0286 32.214 12.494 32.1089 13.4218 32.1565 C 14.0389 32.188 13.5153 32.1216 13.9218 32.324 C 13.8294 32.4774 13.6706 32.6458 13.3741 32.669 C 13.0071 32.6979 12.9203 32.4303 12.8945 32.2603 " fill="#f1c205" fill-rule="evenodd"/>
<path transform="matrix(2.7777777,0,0,-2.7777777,2.7777777,96.97861)" d="M 16.6459 15.4735 C 16.9299 15.6801 17.0603 15.6858 16.8965 16.3128 C 16.0841 15.4678 16.6456 15.4735 16.6459 15.4735 " fill="#fae864" fill-rule="evenodd"/>
</g>
</g>
</svg>
